<svg width="60" height="60" viewBox="0 0 60 60" fill="none" xmlns="http://www.w3.org/2000/svg">
<path d="M9.87854 15.5269C11.4023 15.5269 12.8637 16.1643 13.9412 17.299C15.0186 18.4337 15.6239 19.9726 15.6239 21.5773V38.1705C15.6239 38.9644 15.4753 39.7506 15.1864 40.4838C14.8975 41.2171 14.474 41.8832 13.9403 42.4439C13.4067 43.0046 12.7732 43.449 12.0762 43.7515C11.3792 44.0541 10.6324 44.2088 9.87854 44.207C9.1253 44.2088 8.37914 44.054 7.6829 43.7513C6.98666 43.4486 6.35408 43.004 5.82146 42.4431C5.28884 41.8822 4.86666 41.216 4.57922 40.4828C4.29178 39.7496 4.14474 38.9638 4.1465 38.1705V21.5773C4.14475 20.7834 4.2917 19.997 4.57898 19.263C4.86626 18.529 5.2882 17.8619 5.82065 17.2998C6.35309 16.7378 6.98557 16.2919 7.68189 15.9877C8.3782 15.6835 9.12467 15.5269 9.87854 15.5269Z" fill="#E83C77"/>
<path d="M9.87783 6.52979e-05C11.3947 0.00747359 12.8472 0.646272 13.9185 1.77712C14.9898 2.90797 15.5931 4.43909 15.5966 6.03649C15.593 7.63874 14.9862 9.1741 13.9091 10.3058C12.832 11.4374 11.3726 12.073 9.85118 12.073C8.33095 12.073 6.87298 11.437 5.79801 10.3049C4.72304 9.17285 4.11914 7.63745 4.11914 6.03649C4.11913 5.24141 4.26824 4.45419 4.55797 3.71998C4.8477 2.98576 5.27231 2.31905 5.8074 1.75814C6.3425 1.19724 6.97756 0.753188 7.67609 0.451484C8.37461 0.149781 9.12284 -0.00363277 9.87783 6.52979e-05Z" fill="#E83C77"/>
<path d="M5.73208 47.9131H54.2546C55.7784 47.9131 57.2398 48.5505 58.3172 49.6852C59.3947 50.8199 60 52.3589 60 53.9636C59.9965 55.5658 59.3896 57.1012 58.3125 58.2328C57.2354 59.3645 55.7761 60 54.2546 60H5.73208C4.21293 59.9963 2.75698 59.3591 1.68277 58.2279C0.608565 57.0966 0.00352065 55.5634 0 53.9636C-4.09521e-06 52.3613 0.603505 50.8245 1.67809 49.6902C2.75268 48.5559 4.21062 47.9168 5.73208 47.9131Z" fill="#E83C77"/>
<path d="M55.8408 25.6328V38.197C55.7698 39.7495 55.1341 41.2136 54.0657 42.2858C52.9972 43.358 51.578 43.9562 50.1021 43.9562C48.6262 43.9562 47.207 43.358 46.1385 42.2858C45.0701 41.2136 44.4344 39.7495 44.3634 38.197V23.134C44.3634 21.5331 43.7595 19.9977 42.6845 18.8656C41.6095 17.7336 40.1516 17.0975 38.6313 17.0975C37.1111 17.0975 35.6531 17.7336 34.5781 18.8656C33.5032 19.9977 32.8993 21.5331 32.8993 23.134V38.197C32.8282 39.7495 32.1926 41.2136 31.1241 42.2858C30.0557 43.358 28.6364 43.9562 27.1605 43.9562C25.6847 43.9562 24.2654 43.358 23.197 42.2858C22.1285 41.2136 21.4929 39.7495 21.4218 38.197V25.6328V23.4288C21.3741 21.0505 21.7717 18.6856 22.592 16.4692C23.4124 14.2528 24.6394 12.2283 26.2029 10.5114C27.7663 8.79452 29.6357 7.41881 31.7042 6.46292C33.7727 5.50704 35.9997 4.98969 38.2581 4.94043H38.9779C41.2374 4.98606 43.4662 5.50029 45.5369 6.45367C47.6076 7.40705 49.4795 8.78091 51.0456 10.4967C52.6117 12.2125 53.8413 14.2365 54.6641 16.4531C55.4869 18.6697 55.8868 21.0353 55.8408 23.4148V25.6188V25.6328Z" fill="#E83C77"/>
</svg>
